# Blender v2.93.4 OBJ File: ''
# www.blender.org
mtllib Stair_2.5x2.5.mtl
o Stair_2.5_Cube.004
v -1.250000 -1.250000 1.250000
v -1.250000 1.250000 -1.250000
v 1.250000 -1.250000 1.250000
v 1.250000 1.250000 -1.250000
v -1.250000 -1.250000 1.000000
v -1.250000 1.250000 -1.000000
v 1.250000 -1.250000 1.000000
v 1.250000 1.250000 -1.000000
v -1.250000 -1.000000 1.250000
v -1.250000 1.000000 -1.250000
v 1.250000 1.000000 -1.250000
v 1.250000 -1.000000 1.250000
v 1.250000 1.000000 -1.000000
v 1.250000 0.750000 -1.000000
v 1.250000 1.000000 -0.750000
v 1.250000 0.750000 -0.750000
v 1.250000 0.500000 -0.750000
v 1.250000 0.750000 -0.500000
v 1.250000 0.500000 -0.500000
v 1.250000 0.250000 -0.500000
v 1.250000 0.500000 -0.250000
v 1.250000 0.250000 -0.250000
v 1.250000 0.000000 -0.250000
v 1.250000 0.250000 0.000000
v 1.250000 0.000000 0.000000
v 1.250000 -0.250000 0.000000
v 1.250000 0.000000 0.250000
v 1.250000 -0.250000 0.250000
v 1.250000 -0.500000 0.250000
v 1.250000 -0.250000 0.500000
v 1.250000 -0.500000 0.500000
v 1.250000 -0.750000 0.500000
v 1.250000 -0.500000 0.750000
v 1.250000 -0.750000 0.750000
v 1.250000 -1.000000 0.750000
v 1.250000 -0.750000 1.000000
v 1.250000 -1.000000 1.000000
v -1.250000 -0.750000 1.000000
v -1.250000 -1.000000 1.000000
v -1.250000 -0.500000 0.750000
v -1.250000 -0.750000 0.750000
v -1.250000 -1.000000 0.750000
v -1.250000 -0.250000 0.500000
v -1.250000 -0.500000 0.500000
v -1.250000 -0.750000 0.500000
v -1.250000 0.000000 0.250000
v -1.250000 -0.250000 0.250000
v -1.250000 -0.500000 0.250000
v -1.250000 0.250000 0.000000
v -1.250000 0.000000 0.000000
v -1.250000 -0.250000 0.000000
v -1.250000 0.500000 -0.250000
v -1.250000 0.250000 -0.250000
v -1.250000 0.000000 -0.250000
v -1.250000 0.750000 -0.500000
v -1.250000 0.500000 -0.500000
v -1.250000 0.250000 -0.500000
v -1.250000 1.000000 -0.750000
v -1.250000 0.750000 -0.750000
v -1.250000 0.500000 -0.750000
v -1.250000 1.000000 -1.000000
v -1.250000 0.750000 -1.000000
vt 0.600000 0.225000
vt 0.625000 0.225000
vt 0.625000 0.250000
vt 0.600000 0.250000
vt 0.625000 0.500000
vt 0.600000 0.500000
vt 0.125000 0.725000
vt 0.375000 0.725000
vt 0.375000 0.750000
vt 0.125000 0.750000
vt 0.875000 0.500000
vt 0.875000 0.525000
vt 0.625000 0.525000
vt 0.600000 0.525000
vt 0.400000 0.725000
vt 0.425000 0.725000
vt 0.425000 0.025000
vt 0.400000 0.025000
vt 0.000000 0.000000
vt 0.000000 0.000000
vt 0.000000 0.000000
vt 0.000000 0.000000
vt 0.000000 0.000000
vt 0.000000 0.000000
vt 0.425000 0.050000
vt 0.425000 0.700000
vt 0.000000 0.000000
vt 0.000000 0.000000
vt 0.000000 0.000000
vt 0.000000 0.000000
vt 0.400000 0.000000
vt 0.400000 0.750000
vt 0.575000 0.200000
vt 0.600000 0.200000
vt 0.575000 0.225000
vt 0.000000 0.000000
vt 0.000000 0.000000
vt 0.450000 0.075000
vt 0.450000 0.675000
vt 0.450000 0.050000
vt 0.475000 0.675000
vt 0.475000 0.650000
vt 0.475000 0.100000
vt 0.475000 0.075000
vt 0.000000 0.000000
vt 0.000000 0.000000
vt 0.000000 0.000000
vt 0.000000 0.000000
vt 0.000000 0.000000
vt 0.000000 0.000000
vt 0.550000 0.175000
vt 0.575000 0.175000
vt 0.550000 0.200000
vt 0.000000 0.000000
vt 0.000000 0.000000
vt 0.000000 0.000000
vt 0.000000 0.000000
vt 0.000000 0.000000
vt 0.000000 0.000000
vt 0.500000 0.125000
vt 0.500000 0.625000
vt 0.500000 0.100000
vt 0.000000 0.000000
vt 0.000000 0.000000
vt 0.000000 0.000000
vt 0.000000 0.000000
vt 0.525000 0.150000
vt 0.550000 0.150000
vt 0.525000 0.175000
vt 0.000000 0.000000
vt 0.000000 0.000000
vt 0.525000 0.600000
vt 0.525000 0.125000
vt 0.525000 0.625000
vt 0.000000 0.000000
vt 0.000000 0.000000
vt 0.000000 0.000000
vt 0.000000 0.000000
vt 0.550000 0.600000
vt 0.550000 0.575000
vt 0.000000 0.000000
vt 0.000000 0.000000
vt 0.500000 0.150000
vt 0.000000 0.000000
vt 0.000000 0.000000
vt 0.000000 0.000000
vt 0.000000 0.000000
vt 0.000000 0.000000
vt 0.000000 0.000000
vt 0.575000 0.550000
vt 0.475000 0.125000
vt 0.450000 0.100000
vt 0.425000 0.075000
vt 0.400000 0.050000
vt 0.375000 0.000000
vt 0.375000 0.025000
vt 0.400000 0.700000
vt 0.425000 0.675000
vt 0.450000 0.700000
vt 0.450000 0.650000
vt 0.475000 0.625000
vt 0.500000 0.650000
vt 0.500000 0.600000
vt 0.525000 0.575000
vt 0.550000 0.550000
vt 0.575000 0.575000
vt 0.575000 0.525000
vt 0.600000 0.550000
vt 0.400000 1.000000
vt 0.375000 1.000000
vt 0.000000 0.000000
vt 0.000000 0.000000
vt 0.000000 0.000000
vt 0.000000 0.000000
vt 0.000000 0.000000
vt 0.000000 0.000000
vt 0.000000 0.000000
vt 0.000000 0.000000
vt 0.000000 0.000000
vt 0.000000 0.000000
vt 0.000000 0.000000
vt 0.000000 0.000000
vn -1.0000 0.0000 0.0000
vn 0.0000 0.0000 -1.0000
vn 0.0000 -1.0000 0.0000
vn 0.0000 1.0000 0.0000
vn 1.0000 0.0000 0.0000
vn 0.0000 0.0000 1.0000
usemtl None
s off
f 61/1/1 6/2/1 2/3/1 10/4/1
f 10/4/2 2/3/2 4/5/2 11/6/2
f 5/7/3 7/8/3 3/9/3 1/10/3
f 4/5/4 2/11/4 6/12/4 8/13/4
f 11/6/5 4/5/5 8/13/5 13/14/5
f 37/15/6 36/16/6 38/17/6 39/18/6
f 7/19/2 5/20/2 39/21/2 37/22/2
f 42/23/3 35/24/3 37/22/3 39/21/3
f 35/24/2 42/23/2 41/25/2 34/26/2
f 41/25/4 38/17/4 36/16/4 34/26/4
f 33/27/6 40/28/6 41/29/6 34/30/6
f 39/18/4 9/31/4 12/32/4 37/15/4
f 59/33/1 58/34/1 61/1/1 62/35/1
f 32/36/2 45/37/2 44/38/2 31/39/2
f 44/38/4 40/40/4 33/27/4 31/39/4
f 30/41/4 28/42/4 47/43/4 43/44/4
f 30/45/6 43/46/6 44/47/6 31/48/6
f 31/48/3 44/47/3 48/49/3 29/50/3
f 34/30/3 41/29/3 45/37/3 32/36/3
f 56/51/1 55/52/1 59/33/1 60/53/1
f 27/54/6 46/55/6 47/56/6 28/57/6
f 28/57/3 47/56/3 51/58/3 26/59/3
f 26/59/2 51/58/2 50/60/2 25/61/2
f 50/60/4 46/62/4 27/54/4 25/61/4
f 24/63/6 49/64/6 50/65/6 25/66/6
f 29/50/2 48/49/2 47/43/2 28/42/2
f 53/67/1 52/68/1 56/51/1 57/69/1
f 23/70/2 54/71/2 53/67/2 22/72/2
f 49/73/4 24/74/4 22/72/4 53/67/4
f 21/75/6 52/76/6 53/77/6 22/78/6
f 21/79/4 19/80/4 56/51/4 52/68/4
f 57/81/3 20/82/3 22/78/3 53/77/3
f 54/71/3 23/70/3 25/66/3 50/65/3
f 50/60/1 49/73/1 53/67/1 54/83/1
f 18/84/6 55/85/6 56/86/6 19/87/6
f 19/87/3 56/86/3 60/88/3 17/89/3
f 17/89/2 60/88/2 59/33/2 16/90/2
f 20/82/2 57/81/2 56/51/2 19/80/2
f 47/43/1 46/62/1 50/60/1 51/91/1
f 44/38/1 43/44/1 47/43/1 48/92/1
f 41/25/1 40/40/1 44/38/1 45/93/1
f 39/18/1 38/17/1 41/25/1 42/94/1
f 1/95/1 9/31/1 39/18/1 5/96/1
f 35/97/5 34/26/5 36/16/5 37/15/5
f 32/98/5 31/39/5 33/99/5 34/26/5
f 29/100/5 28/42/5 30/41/5 31/39/5
f 26/101/5 25/61/5 27/102/5 28/42/5
f 23/103/5 22/72/5 24/74/5 25/61/5
f 20/104/5 19/80/5 21/79/5 22/72/5
f 17/105/5 16/90/5 18/106/5 19/80/5
f 14/107/5 13/14/5 15/108/5 16/90/5
f 3/9/6 12/32/6 9/109/6 1/110/6
f 7/8/5 37/15/5 12/32/5 3/9/5
f 55/52/4 18/106/4 16/90/4 59/33/4
f 16/111/3 59/112/3 62/113/3 14/114/3
f 14/114/2 62/113/2 61/1/2 13/14/2
f 15/115/6 58/116/6 59/112/6 16/111/6
f 58/116/4 15/115/4 13/14/4 61/1/4
f 10/117/3 11/118/3 13/119/3 61/120/3
f 6/121/6 61/120/6 13/119/6 8/122/6
