# Blender v2.93.4 OBJ File: 'Shapes.blend'
# www.blender.org
mtllib table.mtl
o Cube.011_Cube.013
v -0.750000 0.275000 1.250000
v -0.750000 0.325000 1.250000
v -0.750000 0.275000 -1.250000
v -0.750000 0.325000 -1.250000
v 0.750000 0.275000 1.250000
v 0.750000 0.325000 1.250000
v 0.750000 0.275000 -1.250000
v 0.750000 0.325000 -1.250000
v -0.750000 0.275000 1.150624
v -0.750000 0.325000 1.150624
v 0.750000 0.275000 1.150624
v 0.750000 0.325000 1.150624
v -0.750000 0.325000 -1.126403
v 0.750000 0.275000 -1.126403
v -0.750000 0.275000 -1.126403
v 0.750000 0.325000 -1.126403
v -0.636662 0.275000 -1.250000
v -0.636662 0.325000 -1.250000
v -0.636662 0.275000 1.250000
v -0.636662 0.325000 1.250000
v -0.636662 0.325000 1.150624
v -0.636662 0.275000 1.150624
v -0.636662 0.275000 -1.126403
v -0.636662 0.325000 -1.126403
v 0.633643 0.325000 -1.250000
v 0.633643 0.275000 1.250000
v 0.633643 0.325000 1.150624
v 0.633643 0.325000 -1.126403
v 0.633643 0.275000 -1.250000
v 0.633643 0.325000 1.250000
v 0.633643 0.275000 1.150624
v 0.633643 0.275000 -1.126403
v -0.750000 -0.475000 1.150624
v -0.750000 -0.475000 1.250000
v -0.636662 -0.475000 -1.250000
v -0.750000 -0.475000 -1.250000
v 0.750000 -0.475000 -1.126403
v 0.750000 -0.475000 -1.250000
v 0.633643 -0.475000 1.250000
v 0.750000 -0.475000 1.250000
v 0.750000 -0.475000 1.150624
v -0.636662 -0.475000 1.150624
v -0.750000 -0.475000 -1.126403
v -0.636662 -0.475000 -1.126403
v -0.636662 -0.475000 1.250000
v 0.633643 -0.475000 -1.250000
v 0.633643 -0.475000 1.150624
v 0.633643 -0.475000 -1.126403
vt 0.375000 0.237640
vt 0.625000 0.237640
vt 0.625000 0.250000
vt 0.375000 0.250000
vt 0.375000 0.480607
vt 0.625000 0.480607
vt 0.625000 0.500000
vt 0.375000 0.500000
vt 0.375000 0.740062
vt 0.625000 0.740062
vt 0.625000 0.750000
vt 0.375000 0.750000
vt 0.375000 0.981110
vt 0.625000 0.981110
vt 0.625000 1.000000
vt 0.375000 1.000000
vt 0.375000 0.500000
vt 0.375000 0.480607
vt 0.856110 0.740062
vt 0.875000 0.740062
vt 0.875000 0.750000
vt 0.856110 0.750000
vt 0.856110 0.512360
vt 0.875000 0.512360
vt 0.355607 0.512360
vt 0.375000 0.512360
vt 0.355607 0.740062
vt 0.625000 0.512360
vt 0.375000 0.000000
vt 0.625000 0.000000
vt 0.625000 0.009938
vt 0.375000 0.009938
vt 0.143890 0.512360
vt 0.125000 0.512360
vt 0.125000 0.512360
vt 0.143890 0.512360
vt 0.856110 0.500000
vt 0.875000 0.500000
vt 0.644393 0.500000
vt 0.644393 0.512360
vt 0.375000 0.769393
vt 0.375000 0.769393
vt 0.375000 0.750000
vt 0.143890 0.740062
vt 0.125000 0.740062
vt 0.644393 0.740062
vt 0.644393 0.750000
vt 0.143890 0.740062
vt 0.125000 0.740062
vt 0.625000 0.769393
vt 0.625000 0.268890
vt 0.375000 0.268890
vt 0.143890 0.500000
vt 0.355607 0.500000
vt 0.355607 0.750000
vt 0.143890 0.750000
vt 0.355607 0.740062
vt 0.375000 0.740062
vt 0.355607 0.750000
vt 0.355607 0.500000
vt 0.375000 0.512360
vt 0.355607 0.512360
vt 0.125000 0.500000
vt 0.143890 0.500000
vt 0.143890 0.750000
vt 0.125000 0.750000
vt 0.375000 0.268890
vt 0.375000 0.250000
vt 0.375000 0.237640
vt 0.375000 0.009938
vt 0.375000 0.000000
vt 0.375000 1.000000
vt 0.375000 0.981110
vn -1.0000 0.0000 0.0000
vn 0.0000 0.0000 -1.0000
vn 1.0000 0.0000 0.0000
vn 0.0000 0.0000 1.0000
vn 0.0000 1.0000 0.0000
vn 0.0000 -1.0000 0.0000
usemtl None
s off
f 15/1/1 13/2/1 4/3/1 3/4/1
f 29/5/2 25/6/2 8/7/2 7/8/2
f 11/9/3 12/10/3 6/11/3 5/12/3
f 19/13/4 20/14/4 2/15/4 1/16/4
f 29/5/2 7/8/2 38/17/2 46/18/2
f 21/19/5 10/20/5 2/21/5 20/22/5
f 24/23/5 13/24/5 10/20/5 21/19/5
f 32/25/6 14/26/6 11/9/6 31/27/6
f 14/26/3 16/28/3 12/10/3 11/9/3
f 1/29/1 2/30/1 10/31/1 9/32/1
f 7/8/3 8/7/3 16/28/3 14/26/3
f 23/33/4 15/34/4 43/35/4 44/36/4
f 18/37/5 4/38/5 13/24/5 24/23/5
f 9/32/1 10/31/1 13/2/1 15/1/1
f 25/39/5 18/37/5 24/23/5 28/40/5
f 5/12/4 26/41/4 39/42/4 40/43/4
f 15/34/6 23/33/6 22/44/6 9/45/6
f 28/40/5 24/23/5 21/19/5 27/46/5
f 27/46/5 21/19/5 20/22/5 30/47/5
f 9/45/2 22/44/2 42/48/2 33/49/2
f 26/41/4 30/50/4 20/14/4 19/13/4
f 3/4/2 4/3/2 18/51/2 17/52/2
f 5/12/4 6/11/4 30/50/4 26/41/4
f 12/10/5 27/46/5 30/47/5 6/11/5
f 16/28/5 28/40/5 27/46/5 12/10/5
f 8/7/5 25/39/5 28/40/5 16/28/5
f 17/53/6 29/54/6 32/25/6 23/33/6
f 23/33/6 32/25/6 31/27/6 22/44/6
f 22/44/6 31/27/6 26/55/6 19/56/6
f 17/52/2 18/51/2 25/6/2 29/5/2
f 47/57/6 41/58/6 40/43/6 39/59/6
f 46/60/6 38/17/6 37/61/6 48/62/6
f 36/63/6 35/64/6 44/36/6 43/35/6
f 33/49/6 42/48/6 45/65/6 34/66/6
f 3/4/2 17/52/2 35/67/2 36/68/2
f 22/44/3 19/56/3 45/65/3 42/48/3
f 32/25/1 29/54/1 46/60/1 48/62/1
f 31/27/2 11/9/2 41/58/2 47/57/2
f 26/55/1 31/27/1 47/57/1 39/59/1
f 14/26/4 32/25/4 48/62/4 37/61/4
f 11/9/3 5/12/3 40/43/3 41/58/3
f 7/8/3 14/26/3 37/61/3 38/17/3
f 15/1/1 3/4/1 36/68/1 43/69/1
f 1/29/1 9/32/1 33/70/1 34/71/1
f 17/53/3 23/33/3 44/36/3 35/64/3
f 19/13/4 1/16/4 34/72/4 45/73/4
